<svg width="183" height="64" viewBox="0 0 183 64" fill="none" xmlns="http://www.w3.org/2000/svg">
<path d="M58.3767 10.8282C58.8481 10.8282 59.1751 11.2981 59.0113 11.7402L43.8175 52.7303C43.7191 52.9957 43.466 53.1718 43.1829 53.1718H38.7188C38.4317 53.1718 38.1759 52.9907 38.0805 52.72L32.3226 36.3827C31.8984 35.1791 30.1968 35.1775 29.7703 36.3803L23.9764 52.7212C23.8806 52.9913 23.6251 53.1718 23.3385 53.1718H18.8582C18.5827 53.1718 18.3347 53.0049 18.2311 52.7496L11.2063 35.4462C11.0256 35.0012 11.3531 34.5148 11.8333 34.5148H17.2599C17.535 34.5148 17.7828 34.6814 17.8866 34.9362L20.0841 40.3292C20.5546 41.4839 22.2038 41.4422 22.6153 40.2652L28.7257 22.7866C28.8206 22.515 29.0768 22.3331 29.3645 22.3331H33.119C33.4096 22.3331 33.6677 22.5186 33.7604 22.794L39.6467 40.2776C40.0554 41.4915 41.7651 41.5113 42.2019 40.3073L52.7339 11.2742C52.831 11.0065 53.0853 10.8282 53.3701 10.8282H58.3767Z" fill="#5EDE99"/>
<path d="M80.8216 38.0449L75.3425 53.4642H72.6355L69.0405 43.264L65.4239 53.4642H62.7169L57.2378 38.0449H60.6812L64.2328 48.6998L67.9577 38.0449H70.3182L73.9565 48.8514L77.5948 38.0449H80.8216Z" fill="#152C07"/>
<path d="M82.5536 42.4844H85.8237V53.4642H82.5536V42.4844ZM85.932 37.3302V40.4054H82.4453V37.3302H85.932Z" fill="#152C07"/>
<path d="M92.6977 53.6374C90.6187 53.6374 88.9801 53.1899 87.7817 52.2948L88.648 50.0208C89.2255 50.4395 89.868 50.7644 90.5754 50.9954C91.2829 51.2119 92.0047 51.3202 92.7411 51.3202C93.3041 51.3202 93.7373 51.2336 94.0404 51.0603C94.3436 50.8871 94.4952 50.6344 94.4952 50.3024C94.4952 50.0281 94.3869 49.8115 94.1704 49.6527C93.9538 49.4939 93.5712 49.3567 93.0226 49.2412L91.2251 48.8297C90.1712 48.5987 89.3915 48.2306 88.8862 47.7253C88.3953 47.2199 88.1499 46.5486 88.1499 45.7112C88.1499 45.0327 88.3448 44.4263 88.7346 43.8921C89.1389 43.3579 89.6947 42.9464 90.4022 42.6577C91.1096 42.3545 91.9253 42.2029 92.8493 42.2029C93.629 42.2029 94.3942 42.3256 95.1449 42.571C95.8957 42.802 96.567 43.1341 97.159 43.5672L96.2494 45.7545C95.6863 45.3647 95.1088 45.0687 94.5169 44.8666C93.9394 44.6645 93.3763 44.5634 92.8277 44.5634C92.2935 44.5634 91.8748 44.6573 91.5716 44.845C91.2684 45.0327 91.1168 45.2925 91.1168 45.6246C91.1168 45.87 91.2035 46.0722 91.3767 46.231C91.5644 46.3753 91.8892 46.4981 92.3512 46.5991L94.192 47.0106C95.3182 47.2705 96.1339 47.6603 96.6392 48.18C97.1445 48.6998 97.3972 49.3928 97.3972 50.2591C97.3972 51.2986 96.9785 52.1215 96.1411 52.7279C95.3037 53.3343 94.1559 53.6374 92.6977 53.6374Z" fill="#152C07"/>
<path d="M109.242 48.245H102.008C102.066 49.2701 102.333 50.0208 102.81 50.4973C103.286 50.9593 103.994 51.1903 104.932 51.1903C105.495 51.1903 106.058 51.0964 106.621 50.9087C107.184 50.7211 107.704 50.4467 108.181 50.0858L109.047 52.2948C108.527 52.7134 107.877 53.0455 107.098 53.2909C106.333 53.5219 105.56 53.6374 104.78 53.6374C102.932 53.6374 101.481 53.1321 100.428 52.1215C99.3736 51.0964 98.8466 49.7032 98.8466 47.9418C98.8466 46.8301 99.0704 45.8412 99.518 44.9749C99.98 44.0942 100.622 43.4156 101.445 42.9392C102.268 42.4483 103.2 42.2029 104.239 42.2029C105.784 42.2029 107.004 42.7082 107.899 43.7188C108.794 44.715 109.242 46.0649 109.242 47.7686V48.245ZM104.326 44.4985C103.705 44.4985 103.2 44.6789 102.81 45.0399C102.434 45.4008 102.189 45.9278 102.073 46.6208H106.426C106.253 45.2059 105.553 44.4985 104.326 44.4985Z" fill="#152C07"/>
<path d="M116.492 53.6374C114.702 53.6374 113.294 53.1321 112.269 52.1215C111.259 51.1109 110.753 49.7321 110.753 47.9851C110.753 46.8446 110.999 45.8412 111.49 44.9749C111.981 44.0942 112.666 43.4156 113.547 42.9392C114.442 42.4483 115.474 42.2029 116.644 42.2029C117.438 42.2029 118.21 42.3256 118.961 42.571C119.712 42.8165 120.311 43.1485 120.759 43.5672L119.892 45.8412C119.459 45.4947 118.983 45.2276 118.463 45.0399C117.943 44.8377 117.438 44.7367 116.947 44.7367C116.052 44.7367 115.352 45.011 114.846 45.5596C114.356 46.0938 114.11 46.8807 114.11 47.9202C114.11 48.9741 114.356 49.7754 114.846 50.324C115.337 50.8582 116.038 51.1253 116.947 51.1253C117.438 51.1253 117.943 51.0315 118.463 50.8438C118.983 50.6417 119.459 50.3673 119.892 50.0208L120.759 52.2948C120.282 52.7134 119.661 53.0455 118.896 53.2909C118.131 53.5219 117.33 53.6374 116.492 53.6374Z" fill="#152C07"/>
<path d="M128.702 42.2245C129.164 42.2245 129.554 42.2967 129.871 42.4411L129.85 45.4297C129.316 45.1842 128.781 45.0615 128.247 45.0615C127.381 45.0615 126.717 45.2997 126.255 45.7762C125.807 46.2382 125.583 46.8879 125.583 47.7253V53.4642H122.313V45.6246C122.313 44.4551 122.256 43.4084 122.14 42.4844H125.215L125.432 44.3685C125.706 43.6755 126.132 43.1485 126.71 42.7876C127.302 42.4122 127.966 42.2245 128.702 42.2245Z" fill="#152C07"/>
<path d="M142.68 42.4844L137.612 54.0489C136.991 55.4494 136.204 56.4744 135.252 57.1241C134.313 57.7883 133.158 58.2142 131.786 58.4019L131.029 55.8897C132.039 55.6731 132.797 55.3988 133.302 55.0668C133.822 54.7347 134.226 54.251 134.515 53.6158L134.84 52.9011L130.314 42.4844H133.736L136.551 49.6094L139.453 42.4844H142.68Z" fill="#152C07"/>
<path d="M150.472 42.2029C151.41 42.2029 152.248 42.4483 152.984 42.9392C153.72 43.4156 154.29 44.0942 154.695 44.9749C155.113 45.8556 155.323 46.859 155.323 47.9851C155.323 49.1113 155.121 50.1075 154.716 50.9737C154.312 51.8255 153.742 52.4824 153.006 52.9444C152.269 53.4064 151.425 53.6374 150.472 53.6374C149.707 53.6374 149.021 53.4786 148.414 53.161C147.808 52.8434 147.346 52.403 147.028 51.84V58.142H143.758V45.6246C143.758 44.4551 143.7 43.4084 143.585 42.4844H146.66L146.877 44.3036C147.166 43.6539 147.628 43.1413 148.263 42.766C148.912 42.3906 149.649 42.2029 150.472 42.2029ZM149.54 51.147C150.349 51.147 150.97 50.8799 151.403 50.3457C151.836 49.7971 152.053 49.0102 152.053 47.9851C152.053 46.9601 151.829 46.1588 151.381 45.5813C150.948 45.0038 150.335 44.715 149.54 44.715C148.732 44.715 148.104 44.9966 147.656 45.5596C147.223 46.1083 147.007 46.9023 147.007 47.9418C147.007 48.9813 147.223 49.7754 147.656 50.324C148.104 50.8727 148.732 51.147 149.54 51.147Z" fill="#152C07"/>
<path d="M161.429 44.9316V49.1979C161.429 49.8043 161.588 50.2518 161.906 50.5406C162.223 50.8149 162.635 50.9521 163.14 50.9521C163.458 50.9521 163.819 50.9015 164.223 50.8005V53.3343C163.703 53.5364 163.075 53.6374 162.339 53.6374C160.982 53.6374 159.942 53.2549 159.22 52.4897C158.513 51.7245 158.159 50.6489 158.159 49.2629V44.9316H156.08V42.4844H158.159V39.9073L161.429 38.8461V42.4844H164.223V44.9316H161.429Z" fill="#152C07"/>
<path d="M171.142 53.6374C169.972 53.6374 168.947 53.4064 168.067 52.9444C167.2 52.4824 166.529 51.8183 166.053 50.9521C165.591 50.0858 165.36 49.0752 165.36 47.9202C165.36 46.7652 165.591 45.7545 166.053 44.8883C166.529 44.022 167.2 43.3579 168.067 42.8959C168.947 42.4339 169.972 42.2029 171.142 42.2029C172.297 42.2029 173.308 42.4339 174.174 42.8959C175.04 43.3579 175.704 44.022 176.166 44.8883C176.643 45.7545 176.881 46.7652 176.881 47.9202C176.881 49.0752 176.643 50.0858 176.166 50.9521C175.704 51.8183 175.04 52.4824 174.174 52.9444C173.308 53.4064 172.297 53.6374 171.142 53.6374ZM171.142 51.147C171.95 51.147 172.564 50.8799 172.983 50.3457C173.416 49.8115 173.632 49.003 173.632 47.9202C173.632 46.8518 173.416 46.0505 172.983 45.5163C172.564 44.9677 171.95 44.6934 171.142 44.6934C170.319 44.6934 169.691 44.9677 169.258 45.5163C168.825 46.0505 168.608 46.8518 168.608 47.9202C168.608 50.0714 169.453 51.147 171.142 51.147Z" fill="#152C07"/>
</svg>
